<?xml version="1.0" encoding="utf-8"?>
<!-- Generator: Adobe Illustrator 23.0.5, SVG Export Plug-In . SVG Version: 6.00 Build 0)  -->
<svg version="1.1" id="Layer_1" xmlns:v="https://vecta.io/nano"
	 xmlns="http://www.w3.org/2000/svg" xmlns:xlink="http://www.w3.org/1999/xlink" x="0px" y="0px" viewBox="0 0 64 64"
	 style="enable-background:new 0 0 64 64;" xml:space="preserve">
<style type="text/css">
	.st0{fill:#B9BFC9;}
	.st1{fill:#D7D9E2;}
	.st2{fill:#F3BA2F;}
	.st3{fill:url(#SVGID_1_);}
	.st4{fill:url(#SVGID_2_);}
	.st5{fill-rule:evenodd;clip-rule:evenodd;fill:#633001;}
	.st6{fill:#FEDC90;}
	.st7{fill-rule:evenodd;clip-rule:evenodd;fill:#D1884F;}
	.st8{fill:#633001;}
</style>
<g>
	<path class="st0" d="M30.7,64c-7-0.3-13.6-2.8-19-7.2c-1.5-1.2-3.2-2.9-4.4-4.4C3.8,48.1,1.5,43.2,0.6,38c-0.7-3.9-0.7-8,0-11.9
		c1-5.3,3.3-10.2,6.7-14.4c1.2-1.5,2.9-3.2,4.4-4.4c4.2-3.4,9.1-5.7,14.4-6.7c3.9-0.7,8-0.7,11.9,0c5.3,1,10.2,3.3,14.4,6.7
		c1.5,1.2,3.2,2.9,4.4,4.4c3.4,4.2,5.7,9.1,6.7,14.4c0.7,3.9,0.7,8,0,11.9c-1,5.3-3.3,10.2-6.7,14.4c-1.2,1.5-2.9,3.2-4.4,4.4
		C46.2,61.7,38.6,64.3,30.7,64z"/>
</g>
<g>
	<path class="st1" d="M30.7,64c-7-0.3-13.6-2.8-19-7.2c-1.5-1.2-3.2-2.9-4.4-4.4C3.8,48.1,1.5,43.2,0.6,38c-0.7-3.9-0.7-8,0-11.9
		c1-5.3,3.3-10.2,6.7-14.4c1.2-1.5,2.9-3.2,4.4-4.4c4.2-3.4,9.1-5.7,14.4-6.7c3.9-0.7,8-0.7,11.9,0c5.3,1,10.2,3.3,14.4,6.7
		c1.5,1.2,3.2,2.9,4.4,4.4c3.4,4.2,5.7,9.1,6.7,14.4c0.7,3.9,0.7,8,0,11.9c-1,5.3-3.3,10.2-6.7,14.4c-1.2,1.5-2.9,3.2-4.4,4.4
		C46.2,61.7,38.6,64.3,30.7,64z M45.8,45.8L59.7,32L45.8,18.2L32,4.3L18.2,18.2L4.3,32l13.8,13.8C25.8,53.4,32,59.7,32,59.7
		C32,59.7,38.2,53.4,45.8,45.8z"/>
	<path class="st1" d="M24.8,39.2L17.5,32l7.2-7.2l7.2-7.2l7.2,7.2l7.2,7.2l-7.2,7.2c-4,4-7.2,7.2-7.2,7.2
		C32,46.4,28.7,43.2,24.8,39.2z"/>
</g>
<g>
	<path class="st2" d="M30.7,64c-7-0.3-13.6-2.8-19-7.2c-1.5-1.2-3.2-2.9-4.4-4.4C3.8,48.1,1.5,43.2,0.6,38c-0.7-3.9-0.7-8,0-11.9
		c1-5.3,3.3-10.2,6.7-14.4c1.2-1.5,2.9-3.2,4.4-4.4c4.2-3.4,9.1-5.7,14.4-6.7c3.9-0.7,8-0.7,11.9,0c5.3,1,10.2,3.3,14.4,6.7
		c1.5,1.2,3.2,2.9,4.4,4.4c3.4,4.2,5.7,9.1,6.7,14.4c0.7,3.9,0.7,8,0,11.9c-1,5.3-3.3,10.2-6.7,14.4c-1.2,1.5-2.9,3.2-4.4,4.4
		C46.2,61.7,38.6,64.3,30.7,64z M34.1,60.7c1.3-0.1,2.5-0.3,3.7-0.5c6.9-1.4,13-5.3,17.2-10.9c3.2-4.2,5.1-9.1,5.6-14.4
		c0.1-1,0.1-1.6,0.1-2.9c0-1.8-0.1-3.1-0.4-4.8C59.2,19.9,55.2,13.4,49.3,9c-4.2-3.2-9.1-5.1-14.4-5.6c-1-0.1-1.6-0.1-2.9-0.1
		c-1.8,0-3.1,0.1-4.8,0.4C19.9,4.8,13.4,8.8,9,14.7c-3.2,4.2-5.1,9.1-5.6,14.4c-0.1,1-0.1,1.6-0.1,2.9c0,1.8,0.1,3.1,0.4,4.8
		C4.8,44.1,8.8,50.6,14.7,55c4.2,3.2,9.1,5.1,14.4,5.6c0.4,0,0.9,0.1,1.8,0.1C31.3,60.8,33.6,60.8,34.1,60.7z"/>
</g>
<g>
	
		<linearGradient id="SVGID_1_" gradientUnits="userSpaceOnUse" x1="32" y1="22.9579" x2="32" y2="7.2411" gradientTransform="matrix(1 0 0 -1 0 66)">
		<stop  offset="0" style="stop-color:#9CB84C"/>
		<stop  offset="1" style="stop-color:#2AB572"/>
	</linearGradient>
	<path class="st3" d="M27,53.8c-2.7-2.7-5-5-5-5c0,0,5.6-5.7,5.7-5.7c0,0,1,1,2.2,2.2l2.2,2.2l2.2-2.2c1.2-1.2,2.2-2.2,2.2-2.2
		c0,0,5.7,5.6,5.7,5.7c0,0-10,10-10,10C32,58.8,29.7,56.5,27,53.8z"/>
	
		<linearGradient id="SVGID_2_" gradientUnits="userSpaceOnUse" x1="32.016" y1="45.0127" x2="32.016" y2="60.7776" gradientTransform="matrix(1 0 0 -1 0 66)">
		<stop  offset="0" style="stop-color:#9CB84C"/>
		<stop  offset="1" style="stop-color:#2AB572"/>
	</linearGradient>
	<path class="st4" d="M24.8,18.1c-1.6-1.6-2.8-2.9-2.8-2.9c0,0,2.3-2.3,5-5l5-5l5,5l5,5l-2.9,2.9L36.3,21l-2.2-2.2L32,16.6l-2.2,2.2
		L27.7,21L24.8,18.1L24.8,18.1z"/>
</g>
<path class="st5" d="M27,26.5C26.7,25.2,27.7,24,29,24c1.2,0,2.1,0.9,2.1,2.1v2.6c0.3,0,0.6,0,0.9,0c0.3,0,0.6,0,0.8,0v-2.6
	c0-1.2,0.9-2.1,2.1-2.1c1.3,0,2.3,1.2,2.1,2.5l-0.6,3.1c1.9,0.9,3.4,2.3,3.4,4.2v1.1c0,1.5-1,2.8-2.4,3.7C36,39.5,34.1,40,32,40
	s-4-0.5-5.4-1.4c-1.4-0.9-2.4-2.2-2.4-3.7v-1.1c0-1.9,1.5-3.3,3.4-4.2L27,26.5z M35.7,30l0.7-3.6c0.2-0.9-0.5-1.7-1.4-1.7
	c-0.8,0-1.5,0.7-1.5,1.5v3.3c-0.2,0-0.4,0-0.6-0.1c-0.3,0-0.6,0-0.8,0c-0.3,0-0.6,0-0.9,0c-0.2,0-0.4,0-0.6,0.1v-3.3
	c0-0.8-0.6-1.5-1.5-1.5c-0.9,0-1.6,0.8-1.4,1.7l0.7,3.6c-2.1,0.8-3.5,2.2-3.5,3.8v1.1c0,2.5,3.2,4.4,7.2,4.4s7.2-2,7.2-4.4v-1.1
	C39.2,32.2,37.8,30.7,35.7,30L35.7,30z"/>
<path class="st6" d="M39.2,34.9c0,2.5-3.2,4.4-7.2,4.4s-7.2-2-7.2-4.4v-1.1h14.4V34.9z"/>
<path class="st7" d="M27.6,26.4c-0.2-0.9,0.5-1.7,1.4-1.7c0.8,0,1.5,0.7,1.5,1.5v3.3c0.5-0.1,1-0.1,1.5-0.1c0.5,0,1,0,1.5,0.1v-3.3
	c0-0.8,0.6-1.5,1.5-1.5c0.9,0,1.6,0.8,1.4,1.7L35.7,30c2.1,0.8,3.5,2.2,3.5,3.8c0,2.5-3.2,4.4-7.2,4.4s-7.2-2-7.2-4.4
	c0-1.6,1.4-3,3.5-3.8L27.6,26.4z"/>
<path class="st8" d="M30,33.5c0,0.7-0.4,1.2-0.8,1.2s-0.8-0.5-0.8-1.2c0-0.7,0.4-1.2,0.8-1.2S30,32.8,30,33.5z M35.5,33.5
	c0,0.7-0.4,1.2-0.8,1.2c-0.4,0-0.8-0.5-0.8-1.2c0-0.7,0.4-1.2,0.8-1.2C35.2,32.2,35.5,32.8,35.5,33.5z"/>
</svg>
