<?xml version="1.0" encoding="utf-8"?>
<!-- Generator: Adobe Illustrator 23.0.5, SVG Export Plug-In . SVG Version: 6.00 Build 0)  -->
<svg version="1.1" id="Layer_1" xmlns:v="https://vecta.io/nano"
	 xmlns="http://www.w3.org/2000/svg" xmlns:xlink="http://www.w3.org/1999/xlink" x="0px" y="0px" viewBox="0 0 193 230"
	 style="enable-background:new 0 0 193 230;" xml:space="preserve">
<style type="text/css">
	.st0{clip-path:url(#SVGID_2_);}
	.st1{opacity:0.1;}
	.st2{fill:#B9BFC9;}
	.st3{fill:#D7D9E2;}
	.st4{fill:#F3BA2F;}
	.st5{fill:url(#SVGID_3_);}
	.st6{fill:url(#SVGID_4_);}
	.st7{fill-rule:evenodd;clip-rule:evenodd;fill:#633001;}
	.st8{fill:#FEDC90;}
	.st9{fill-rule:evenodd;clip-rule:evenodd;fill:#D1884F;}
	.st10{fill:#633001;}
</style>
<g>
	<g>
		<defs>
			<rect id="SVGID_1_" width="192.2" height="230"/>
		</defs>
		<clipPath id="SVGID_2_">
			<use xlink:href="#SVGID_1_"  style="overflow:visible;"/>
		</clipPath>
		<g class="st0">
			<g class="st1">
				<g>
					<path class="st2" d="M131.2,145.2c-19.7-0.8-38.3-7.9-53.5-20.4c-4.2-3.4-9-8.3-12.4-12.4C55.6,100.7,49.2,86.8,46.4,72
						c-2.1-11-2.1-22.5,0-33.5c2.8-14.8,9.3-28.6,18.9-40.4c3.4-4.2,8.3-9,12.4-12.4c11.7-9.6,25.6-16.1,40.4-18.9
						c11-2.1,22.5-2.1,33.5,0c14.8,2.8,28.6,9.3,40.4,18.9c4.2,3.4,9,8.3,12.4,12.4c9.6,11.7,16.1,25.6,18.9,40.4
						c2.1,11,2.1,22.5,0,33.5c-2.8,14.8-9.3,28.6-18.9,40.4c-3.4,4.2-8.3,9-12.4,12.4C174.8,138.9,153.3,146.1,131.2,145.2z"/>
				</g>
				<g>
					<path class="st3" d="M131.2,145.2c-19.7-0.8-38.3-7.9-53.5-20.4c-4.2-3.4-9-8.3-12.4-12.4C55.6,100.7,49.2,86.8,46.4,72
						c-2.1-11-2.1-22.5,0-33.5c2.8-14.8,9.3-28.6,18.9-40.4c3.4-4.2,8.3-9,12.4-12.4c11.7-9.6,25.6-16.1,40.4-18.9
						c11-2.1,22.5-2.1,33.5,0c14.8,2.8,28.6,9.3,40.4,18.9c4.2,3.4,9,8.3,12.4,12.4c9.6,11.7,16.1,25.6,18.9,40.4
						c2.1,11,2.1,22.5,0,33.5c-2.8,14.8-9.3,28.6-18.9,40.4c-3.4,4.2-8.3,9-12.4,12.4C174.8,138.9,153.3,146.1,131.2,145.2z
						 M173.8,94.2l38.9-38.9l-38.9-38.9l-38.9-38.9L95.9,16.4L57,55.3l38.9,38.9c21.4,21.4,38.9,38.9,38.9,38.9
						S152.4,115.6,173.8,94.2z"/>
					<path class="st3" d="M114.5,75.6L94.2,55.3L114.5,35l20.3-20.3L155.1,35l20.3,20.3l-20.3,20.3c-11.2,11.2-20.3,20.3-20.3,20.3
						S125.6,86.8,114.5,75.6z"/>
				</g>
				<g>
					<path class="st4" d="M131.2,145.2c-19.7-0.8-38.3-7.9-53.5-20.4c-4.2-3.4-9-8.3-12.4-12.4C55.6,100.7,49.2,86.8,46.4,72
						c-2.1-11-2.1-22.5,0-33.5c2.8-14.8,9.3-28.6,18.9-40.4c3.4-4.2,8.3-9,12.4-12.4c11.7-9.6,25.6-16.1,40.4-18.9
						c11-2.1,22.5-2.1,33.5,0c14.8,2.8,28.6,9.3,40.4,18.9c4.2,3.4,9,8.3,12.4,12.4c9.6,11.7,16.1,25.6,18.9,40.4
						c2.1,11,2.1,22.5,0,33.5c-2.8,14.8-9.3,28.6-18.9,40.4c-3.4,4.2-8.3,9-12.4,12.4C174.8,138.9,153.3,146.1,131.2,145.2z
						 M140.8,136.1c3.8-0.3,7-0.7,10.4-1.4c19.3-4,36.5-14.9,48.4-30.8c8.9-11.8,14.3-25.7,15.8-40.4c0.3-2.9,0.4-4.4,0.4-8.1
						c0-5.2-0.3-8.8-1.1-13.5C211.3,21.4,200.1,3,183.4-9.5c-11.8-8.9-25.7-14.3-40.5-15.8c-2.9-0.3-4.4-0.4-8.1-0.4
						c-5.2,0-8.9,0.3-13.5,1.1C100.9-21.2,82.5-9.9,70,6.7c-8.9,11.8-14.3,25.7-15.8,40.4c-0.3,2.9-0.4,4.4-0.4,8.1
						c0,5.2,0.3,8.8,1.1,13.5c3.4,20.4,14.6,38.8,31.3,51.3c11.8,8.9,25.6,14.3,40.5,15.8c1.1,0.1,2.4,0.2,5,0.4
						C132.9,136.3,139.2,136.2,140.8,136.1z"/>
				</g>
				<g>
					
						<linearGradient id="SVGID_3_" gradientUnits="userSpaceOnUse" x1="134.8276" y1="143.641" x2="134.8276" y2="99.4374" gradientTransform="matrix(1 0 0 -1 0 230)">
						<stop  offset="0" style="stop-color:#9CB84C"/>
						<stop  offset="1" style="stop-color:#2AB572"/>
					</linearGradient>
					<path class="st5" d="M120.7,116.5c-7.7-7.7-14.1-14.1-14.1-14.2c0-0.1,15.9-16,16-16c0,0,2.8,2.7,6.1,6l6.1,6.1l6.1-6.1
						c3.3-3.3,6.1-6,6.1-6c0.1,0,16,15.9,16,16c0,0.1-28.1,28.2-28.2,28.2C134.8,130.6,128.5,124.2,120.7,116.5z"/>
					
						<linearGradient id="SVGID_4_" gradientUnits="userSpaceOnUse" x1="134.8726" y1="205.6702" x2="134.8726" y2="250.0088" gradientTransform="matrix(1 0 0 -1 0 230)">
						<stop  offset="0" style="stop-color:#9CB84C"/>
						<stop  offset="1" style="stop-color:#2AB572"/>
					</linearGradient>
					<path class="st6" d="M114.6,16.3c-4.4-4.4-8-8-8-8.1c0-0.1,6.3-6.4,14.1-14.2L134.8-20L149-5.9l14.1,14.1l-8,8l-8,8l-6.1-6.1
						l-6.1-6.1l-6.1,6.1l-6.1,6.1L114.6,16.3L114.6,16.3z"/>
				</g>
				<path class="st7" d="M120.7,39.8c-0.7-3.7,2.1-7,5.8-7c3.2,0,5.9,2.7,5.9,5.9v7.3c0.8-0.1,1.6-0.1,2.5-0.1c0.8,0,1.6,0,2.4,0.1
					v-7.3c0-3.3,2.6-5.9,5.9-5.9c3.7,0,6.5,3.4,5.8,7l-1.6,8.6c5.5,2.4,9.6,6.6,9.6,11.9v3.2c0,4.3-2.8,7.9-6.8,10.4
					c-4,2.5-9.4,3.9-15.3,3.9c-5.9,0-11.3-1.5-15.3-3.9c-4-2.4-6.8-6.1-6.8-10.4v-3.2c0-5.2,4.1-9.4,9.5-11.8L120.7,39.8z
					 M145.2,49.6l1.9-10.1c0.5-2.5-1.5-4.9-4-4.9c-2.3,0-4.1,1.8-4.1,4.1v9.3c-0.6-0.1-1.2-0.1-1.8-0.2c-0.8-0.1-1.6-0.1-2.4-0.1
					c-0.8,0-1.7,0-2.5,0.1c-0.6,0-1.2,0.1-1.8,0.2v-9.3c0-2.3-1.8-4.1-4.1-4.1c-2.6,0-4.5,2.3-4,4.9l1.9,10.1
					c-5.8,2.2-9.7,6.2-9.7,10.7v3.2c0,6.9,9.1,12.5,20.2,12.5s20.2-5.6,20.2-12.5v-3.2C155.1,55.8,151.1,51.8,145.2,49.6L145.2,49.6
					z"/>
				<path class="st8" d="M155.1,63.5c0,6.9-9.1,12.5-20.2,12.5s-20.2-5.6-20.2-12.5v-3.2h40.5V63.5z"/>
				<path class="st9" d="M122.5,39.5c-0.5-2.5,1.5-4.9,4-4.9c2.3,0,4.1,1.8,4.1,4.1v9.3c1.4-0.2,2.8-0.3,4.3-0.3
					c1.4,0,2.8,0.1,4.2,0.3v-9.3c0-2.3,1.8-4.1,4.1-4.1c2.6,0,4.5,2.3,4,4.9l-1.9,10.1c5.9,2.2,9.8,6.2,9.8,10.7
					c0,6.9-9.1,12.5-20.2,12.5s-20.2-5.6-20.2-12.5c0-4.5,3.9-8.5,9.7-10.7L122.5,39.5z"/>
				<path class="st10" d="M129.2,59.4c0,1.9-1,3.4-2.2,3.4s-2.2-1.5-2.2-3.4c0-1.9,1-3.4,2.2-3.4C128.2,56,129.2,57.5,129.2,59.4z
					 M144.7,59.4c0,1.9-1,3.4-2.2,3.4s-2.2-1.5-2.2-3.4c0-1.9,1-3.4,2.2-3.4S144.7,57.5,144.7,59.4z"/>
			</g>
		</g>
	</g>
</g>
</svg>
